<svg id="Layer_1" data-name="Layer 1" xmlns="http://www.w3.org/2000/svg" viewBox="0 0 24 24"><title>HRM_Expand</title><rect width="24" height="24" style="fill:#fff;opacity:0"/><rect x="7.5" y="4.5" width="13" height="10" style="fill:#fff"/><polyline points="20.5 5 20.5 14.5 8.5 14.5" style="fill:none;stroke:#757575;stroke-miterlimit:10"/><line x1="13.5" y1="14.5" x2="13.5" y2="17.5" style="fill:none;stroke:#757575;stroke-linecap:round;stroke-miterlimit:10"/><line x1="14.5" y1="14.5" x2="16.5" y2="17.5" style="fill:none;stroke:#757575;stroke-linecap:round;stroke-miterlimit:10"/><line x1="12.5" y1="14.5" x2="10.5" y2="17.5" style="fill:none;stroke:#757575;stroke-linecap:round;stroke-miterlimit:10"/><path d="M2.5,8.69A1.19,1.19,0,0,1,3.69,7.5H11.5a1,1,0,0,1,1,1h0a1,1,0,0,1-1,1h-3v13h-4v-7h-2Z" style="fill:#c2e8ff;stroke:#7496c4;stroke-miterlimit:10"/><line x1="8.5" y1="4.5" x2="21.5" y2="4.5" style="fill:none;stroke:#757575;stroke-linecap:round;stroke-miterlimit:10"/><line x1="13.5" y1="2.5" x2="13.5" y2="4.5" style="fill:none;stroke:#757575;stroke-linecap:round;stroke-miterlimit:10"/><circle cx="6.5" cy="4.5" r="2" style="fill:#ffeea3;stroke:#ba9b48;stroke-miterlimit:10"/></svg>