<svg xmlns="http://www.w3.org/2000/svg" viewBox="0 0 24 24"><title>HRM_Expand</title><g id="Layer_1" data-name="Layer 1"><circle cx="12" cy="12" r="9.5" style="fill:#bae0bd"/><path d="M12,22A10,10,0,1,1,22,12,10,10,0,0,1,12,22ZM12,3a9,9,0,1,0,9,9A9,9,0,0,0,12,3Z" style="fill:#619d78"/><path d="M12.3,12h9.2a9.5,9.5,0,0,1-3.66,7.49l-5.66-7.25A.15.15,0,0,1,12.3,12Z" style="fill:#c2e8ff"/><path d="M17.76,20.19l-6.65-8.38.78-.62,6,7.59A9,9,0,0,0,21,12h1a10,10,0,0,1-3.85,7.89Z" style="fill:#7496c4"/><path d="M12,12V2.5A9.5,9.5,0,0,1,21.5,12Z" style="fill:#f4caae"/><path d="M22,12H21a9,9,0,0,0-9-9v8.5H11v-9a.5.5,0,0,1,.5-.5H12A10,10,0,0,1,22,12Z" style="fill:#a16a4a"/><path d="M21.5,12h-10a.5.5,0,0,1-.5-.5V2.6a.5.5,0,1,1,1,0V11h9.5a.5.5,0,0,1,0,1Z" style="fill:#a16a4a"/></g><g id="Layer_2" data-name="Layer 2"><rect width="24" height="24" style="fill:#fcfcfc;opacity:0"/></g></svg>