<?xml version="1.0" encoding="utf-8"?>
<!-- Generator: Adobe Illustrator 21.1.0, SVG Export Plug-In . SVG Version: 6.00 Build 0)  -->
<svg version="1.1" id="Layer_1" xmlns="http://www.w3.org/2000/svg" xmlns:xlink="http://www.w3.org/1999/xlink" x="0px" y="0px"
	 viewBox="0 0 24 24" style="enable-background:new 0 0 24 24;" xml:space="preserve">
<style type="text/css">
	.st0{fill-opacity:0;}
	.st1{fill:none;}
	.st2{fill:#F5F5F5;}
	.st3{fill:none;stroke:#A16A4A;}
	.st4{fill:#FFEEA3;}
	.st5{fill:#A16A4A;}
</style>
<path class="st0" d="M11.5,1.5"/>
<rect class="st1" width="24" height="24"/>
<g transform="translate(2 5)">
	<path class="st2" d="M2,0h16c1.1,0,2,0.9,2,2v10c0,1.1-0.9,2-2,2H2c-1.1,0-2-0.9-2-2V2C0,0.9,0.9,0,2,0z"/>
	<path class="st3" d="M2,0.5h16c0.8,0,1.5,0.7,1.5,1.5v10c0,0.8-0.7,1.5-1.5,1.5H2c-0.8,0-1.5-0.7-1.5-1.5V2C0.5,1.2,1.2,0.5,2,0.5z
		"/>
</g>
<g transform="translate(2 5)">
	<path class="st4" d="M9.6,7.4L0.5,2.7V2c0-0.8,0.7-1.5,1.5-1.5h16c0.8,0,1.5,0.7,1.5,1.5v0.7L9.6,7.4z"/>
	<path class="st5" d="M9.6,6.9L19,2.4V2c0-0.6-0.4-1-1-1H2C1.4,1,1,1.4,1,2v0.4L9.6,6.9 M9.6,8L0,3V2c0-1.1,0.9-2,2-2h16
		c1.1,0,2,0.9,2,2v1L9.6,8z"/>
</g>
</svg>
