<svg xmlns="http://www.w3.org/2000/svg" viewBox="0 0 24 24"><title>HRM_Expand</title><g id="Layer_1" data-name="Layer 1"><path d="M17.5,13.5v4.94a2.37,2.37,0,0,1-.1.91,1.69,1.69,0,0,1-.54.73,1,1,0,0,1-.48.22,1,1,0,0,1-.72-.27,3.31,3.31,0,0,1-.66-1,.75.75,0,0,1,0,.25,3.92,3.92,0,0,1,0,.56,1.6,1.6,0,0,1-.32,1,1.27,1.27,0,0,1-.78.34,1.35,1.35,0,0,1-.71-.08,1.51,1.51,0,0,1-.7-1.53V19.5A1.48,1.48,0,0,1,11,21h0A1.48,1.48,0,0,1,9.5,19.5" style="fill:#e8d47b"/><path d="M13.67,21.73a1.64,1.64,0,0,1-.67-.13,1.49,1.49,0,0,1-.69-.59,1.91,1.91,0,0,1-1.38.48A2,2,0,0,1,9,19.5a.5.5,0,0,1,1,0,1,1,0,0,0,.93,1,1,1,0,0,0,.77-.27,1,1,0,0,0,.3-.71V18h1v1.6c0,.79.22,1,.4,1.07a.86.86,0,0,0,.45,0,.82.82,0,0,0,.48-.19,1.22,1.22,0,0,0,.19-.7,3.56,3.56,0,0,0,0-.49l0,0v0l.25-.13h0l.64-.33h0a2.9,2.9,0,0,0,.55.82.44.44,0,0,0,.33.14.5.5,0,0,0,.24-.12,1.2,1.2,0,0,0,.38-.51,1.6,1.6,0,0,0,.06-.6V13.5a.5.5,0,0,1,1,0v5.06a2.5,2.5,0,0,1-.13,1,2.17,2.17,0,0,1-.7.95,1.49,1.49,0,0,1-.73.32,1.42,1.42,0,0,1-1-.31,1.58,1.58,0,0,1-.37.73,1.73,1.73,0,0,1-1.08.5Z" style="fill:#ba9b48"/><path d="M12.5,3.19,8,16.28l8.5,3.22,4-13Zm2,9.59a1.92,1.92,0,1,1,2-1.92A2,2,0,0,1,14.5,12.78Z" style="fill:#bae0bd"/><path d="M16.82,20.16,7.37,16.57,12.2,2.52l8.91,3.69ZM8.63,16l7.55,2.86L19.89,6.79,12.8,3.85Zm5.87-2.71A2.42,2.42,0,1,1,17,10.86,2.46,2.46,0,0,1,14.5,13.28Zm0-3.84A1.42,1.42,0,1,0,16,10.86,1.46,1.46,0,0,0,14.5,9.44Z" style="fill:#619d78"/><path d="M2,14l5.62-4a.25.25,0,0,1,.14,0h2a.26.26,0,0,1,.24.34L8.19,16.17l.11.26,4.79-3.19.1,0c.31,0,1.8-.15,2,1.78a.26.26,0,0,1-.08.21l-7.2,6.73A.25.25,0,0,1,7.7,22H2" style="fill:#ffeea3"/><path d="M3,22H7.73a.25.25,0,0,0,.17-.07l7-6.56a.25.25,0,0,0,.08-.2c-.15-1.88-1.6-1.78-1.91-1.74l-.1,0-.35.24-2.15,1.43-.51.34L8.42,16.61,8,16.33l.54-1.46" style="fill:#ffeea3"/><path d="M7.4,22H2V21H7.3a.83.83,0,0,0,.57-.22L9.79,19l3.37-3.15,1.27-1.18a.13.13,0,0,0,.05-.16,1.43,1.43,0,0,0-.43-.86c-.66-.55-1.29.06-1.82.44s-1.31.9-2,1.32l-1.34,1c-.54.4-1.06,0-1.51-.36l.91-2.2,1,.09-.53,1.35,1.45-1,2.5-1.67a.75.75,0,0,1,.3-.12,2.06,2.06,0,0,1,2.41,1.69,1.51,1.51,0,0,1-.48,1.4l-6.46,6A1.57,1.57,0,0,1,7.4,22Zm7.17-7.49h0Z" style="fill:#ba9b48"/><path d="M2,13.93v-1l2.6-1.59,2-1.22.85-.52A3.85,3.85,0,0,1,8.52,9a8,8,0,0,1,1.55,0h.66S11,9,11,9l-1,1s-.34,0-.41,0H8.74a.59.59,0,0,0-.17.08L4.33,12.57Z" style="fill:#ba9b48"/><path d="M8.5,14.5m3-9" style="fill:#bae0bd;stroke:#619d78;stroke-linecap:square;stroke-miterlimit:10"/><path d="M12.5,3.5l-4,11.19" style="fill:#bae0bd;stroke:#619d78;stroke-linecap:square;stroke-miterlimit:10"/><line x1="10" y1="10" x2="8" y2="16.15" style="fill:#ffeea3"/><circle cx="15" cy="7" r="1" style="fill:#619d78"/></g><g id="Layer_2" data-name="Layer 2"><rect width="24" height="24" style="fill:#fff;opacity:0"/></g></svg>