<svg id="Layer_1" data-name="Layer 1" xmlns="http://www.w3.org/2000/svg" viewBox="0 0 24 24"><title>HRM_Expand</title><rect width="24" height="24" style="fill:#fff;opacity:0"/><rect x="3.5" y="4.5" width="17" height="12" style="fill:#c2e8ff"/><path d="M20,5V16H4V5H20m1-1H3V17H21V4Z" style="fill:#7496c4"/><rect x="3.5" y="15.5" width="17" height="1" style="fill:#c2e8ff"/><polygon points="21 15 3 15 3 17 21 17 21 15 21 15" style="fill:#7496c4"/><rect x="10" y="17" width="4" height="2" style="fill:#b0c1d4"/><rect x="8" y="19" width="8" height="1" style="fill:#c2e8ff"/><polygon points="16 19 8 19 8 20 16 20 16 19 16 19" style="fill:#7496c4"/><polyline points="4 10.5 9.45 10.5 10.58 8.1 13.42 12.9 15.12 10.5 21 10.5" style="fill:#c2e8ff;stroke:#7496c4;stroke-miterlimit:10"/></svg>