<svg xmlns="http://www.w3.org/2000/svg" viewBox="0 0 24 24"><title>HRM_Expand</title><g id="Layer_1" data-name="Layer 1"><path d="M16,10l-.58-.81c1.06-.76,3.84-3.15,4-5a1.66,1.66,0,0,0-.58-1.38l.68-.73a2.64,2.64,0,0,1,.89,2.18C20.2,7,16.17,9.92,16,10Z" style="fill:#f5c276"/><circle cx="18.88" cy="3.94" r="1.5" transform="translate(-0.2 1.12) rotate(-3.39)" style="fill:#fff"/><path d="M18.88,5.94a2,2,0,0,1-2-1.88h0A2,2,0,1,1,19,5.94ZM17.88,4a1,1,0,1,0,.94-1.06A1,1,0,0,0,17.88,4Z" style="fill:#f5c276"/><path d="M8.47,9.92c-.18-.11-4.37-2.79-4.71-5.49A2.64,2.64,0,0,1,4.51,2.2l.73.69A1.66,1.66,0,0,0,4.75,4.3C5,6.16,7.9,8.38,9,9.08Z" style="fill:#f5c276"/><circle cx="5.23" cy="4" r="1.5" style="fill:#fff"/><path d="M5.23,6a2,2,0,1,1,2-2A2,2,0,0,1,5.23,6Zm0-3a1,1,0,1,0,1,1A1,1,0,0,0,5.23,3Z" style="fill:#f5c276"/><path d="M8.79,10.07,8.5,9.5A36.25,36.25,0,0,1,6.6,3,.41.41,0,0,1,7,2.5H17a.41.41,0,0,1,.41.5,36.25,36.25,0,0,1-1.9,6.5l-.29.57C13.45,13.61,10.55,13.61,8.79,10.07Z" style="fill:#ffeea3"/><path d="M12,13.23c-1.42,0-2.72-1-3.66-2.93h0l-.29-.58A36.33,36.33,0,0,1,6.12,3.1.91.91,0,0,1,7,2H17a.92.92,0,0,1,.9,1.11,36.35,36.35,0,0,1-1.94,6.62l-.29.57C14.72,12.19,13.42,13.23,12,13.23ZM9.23,9.85C10,11.36,11,12.23,12,12.23s2-.87,2.77-2.37l.29-.57A35.93,35.93,0,0,0,16.88,3H7.12A35.91,35.91,0,0,0,8.95,9.28Z" style="fill:#f5c276"/><rect x="11.5" y="13.5" width="1" height="2" style="fill:#ffeea3"/><rect x="11" y="13" width="2" height="3" style="fill:#f5c276"/><polygon points="12 15.01 9.5 16.09 9.5 16.5 14.5 16.5 14.5 16.05 12 15.01" style="fill:#ffeea3"/><path d="M15,17H9V15.76l3-1.29,3,1.25Zm-4-1h2.1L12,15.56Z" style="fill:#f5c276"/><rect x="7.5" y="17.5" width="9" height="4" style="fill:#b08159"/><path d="M17,22H7V17H17ZM8,21h8V18H8Z" style="fill:#704e34"/><rect x="9" y="19" width="6" height="1" style="fill:#ffeea3"/><rect x="8" y="5" width="5" height="1" style="fill:#f5c276"/><rect x="14" y="5" width="2" height="1" style="fill:#f5c276"/></g><g id="Layer_2" data-name="Layer 2"><rect width="24" height="24" style="fill:#7496c4;opacity:0"/></g></svg>