<?xml version="1.0" encoding="utf-8" ?>
<!-- Generator: Adobe Illustrator 15.0.0, SVG Export Plug-In . SVG Version: 6.00 Build 0)  -->
<!DOCTYPE svg PUBLIC "-//W3C//DTD SVG 1.1//EN" "http://www.w3.org/Graphics/SVG/1.1/DTD/svg11.dtd">
<svg version="1.1" id="Capa_1" xmlns="http://www.w3.org/2000/svg" xmlns:xlink="http://www.w3.org/1999/xlink" x="0px" y="0px"
     width="20px" height="20px" viewBox="0 0 50 50" enable-background="new 0 0 50 50" xml:space="preserve">
<path  fill="#999999" d="M33.962,23.959c-0.514-0.854-1.516-1.51-2.395-2.335
	c-0.848-0.796-1.599-1.622-2.074-2.647c-0.913-1.973-1.069-5.856,0.108-7.889c0.441-0.769,1.436-1.528,2.286-2.179
	c0.918-0.703,1.895-1.191,2.232-2.282c0.552-1.77-0.645-2.887-1.7-3.477c-2.234-1.252-6.349-1.604-9.578-1.454
	C19.669,1.842,15.17,2.5,14.438,5.069c-0.579,2.024,1.057,2.976,2.18,3.84c0.85,0.655,1.877,1.354,2.341,2.179
	c1.197,2.136,1.033,6.061-0.054,8.151c-0.496,0.954-1.316,1.811-2.287,2.646c-0.976,0.841-1.969,1.581-2.34,2.593
	c-0.39,1.056-0.227,2.069,0.267,2.855c1.452,2.327,5.625,2.647,8.884,2.96c0.137,5.449,0.073,11.303,0.479,16.399
	c0.057,0.72,0.024,1.477,0.316,2.126c0.798-5.693,0.609-12.347,0.854-18.577c3.678-0.242,8.315-0.633,9.257-3.688
	C34.604,25.682,34.427,24.727,33.962,23.959z" />
</svg>
