<svg xmlns="http://www.w3.org/2000/svg" viewBox="0 0 24 24"><title>HRM_Expand</title><g id="Layer_1" data-name="Layer 1"><rect x="5.5" y="3.5" width="13" height="17" style="fill:#fff"/><path d="M18,4V20H6V4H18m1-1H5V21H19V3Z" style="fill:#788b9c"/><circle cx="12" cy="7" r="1.5" style="fill:#ffeea3"/><path d="M12,6a1,1,0,1,1-1,1,1,1,0,0,1,1-1m0-1a2,2,0,1,0,2,2,2,2,0,0,0-2-2Z" style="fill:#ba9b48"/><path d="M9,12.5a3,3,0,0,1,5.92,0Z" style="fill:#c2e8ff"/><path d="M12,10.5A2.5,2.5,0,0,1,14.29,12H9.71A2.5,2.5,0,0,1,12,10.5m0-1A3.5,3.5,0,0,0,8.5,13h7A3.5,3.5,0,0,0,12,9.5Z" style="fill:#7496c4"/><g style="opacity:0.4"><rect x="8" y="16" width="8" height="1" style="fill:#7496c4"/></g><g style="opacity:0.4"><rect x="8" y="14" width="8" height="1" style="fill:#7496c4"/></g></g><g id="Layer_2" data-name="Layer 2"><rect width="24" height="24" style="fill:#fff;opacity:0"/></g></svg>