<svg xmlns="http://www.w3.org/2000/svg" viewBox="0 0 24 24"><title>HRM_Expand</title><g id="Layer_1" data-name="Layer 1"><path d="M10.8,13.78,10.1,14a4.85,4.85,0,0,1-3.16-.09L6.5,13.5C7,13,7.56,12.88,7.72,12.22A6.63,6.63,0,0,0,7.56,9.7,6.28,6.28,0,0,1,8.69,4.92,4.6,4.6,0,0,1,13,3.57a2.91,2.91,0,0,1,1.62,1.28,2.92,2.92,0,0,1,2.55,2.38,12.58,12.58,0,0,1-.33,4.86.59.59,0,0,0,0,.22.54.54,0,0,0,.07.17c.07.12,1.57,1,1.57,1a3.31,3.31,0,0,1-4.28.58Z" style="fill:#a6714e"/><path d="M16,15.15a3.55,3.55,0,0,1-1.93-.59l-3.2-.28-.61.19a5.38,5.38,0,0,1-3.49-.1l-.17-.1-.8-.76.35-.36a4,4,0,0,1,.56-.46c.31-.22.48-.35.53-.59a4.49,4.49,0,0,0-.08-1.8c0-.18-.06-.36-.09-.53A6.75,6.75,0,0,1,8.3,4.61a5.08,5.08,0,0,1,4.83-1.53A3.41,3.41,0,0,1,15,4.39,3.43,3.43,0,0,1,17.7,7.13a13.13,13.13,0,0,1-.33,5.06c0,.05.78.51,1.39.88l.52.31-.4.45A4.08,4.08,0,0,1,16,15.15Zm-5.24-1.88,3.65.32.11.07a2.61,2.61,0,0,0,3.15-.09c-1-.65-1.1-.75-1.16-.85a1,1,0,0,1-.13-.33,1.06,1.06,0,0,1,0-.4,12.38,12.38,0,0,0,.33-4.66,2.42,2.42,0,0,0-2.1-2l-.26,0-.13-.23a2.43,2.43,0,0,0-1.32-1.05A4.07,4.07,0,0,0,9.08,5.24a5.73,5.73,0,0,0-1,4.39c0,.17.05.34.08.51a5.33,5.33,0,0,1,.06,2.2,2,2,0,0,1-.92,1.17,4.39,4.39,0,0,0,2.66,0Z" style="fill:#7a4f34"/><path d="M14.5,16l-1,.24a4.28,4.28,0,0,1-2,0l-1-.24V13.5h4Z" style="fill:#deb974"/><path d="M12.5,16.88a4.77,4.77,0,0,1-1.14-.14L10,16.41V13h5v3.41l-1.36.33A4.75,4.75,0,0,1,12.5,16.88ZM11,15.63l.59.15a3.78,3.78,0,0,0,1.81,0l.6-.15V14H11Z" style="fill:#987c46"/><path d="M9.5,10.25A1.25,1.25,0,0,1,10.63,9a5.52,5.52,0,0,0,2.72-1.14,1.33,1.33,0,0,1,1.87.21h0a1.32,1.32,0,0,1,.28.82V12a1.13,1.13,0,0,1-.08.45,4.41,4.41,0,0,1-2.54,1.94,1.21,1.21,0,0,1-.74,0,4,4,0,0,1-2.51-1.88A1.18,1.18,0,0,1,9.5,12Z" style="fill:#deb974"/><path d="M12.46,15a1.67,1.67,0,0,1-.46-.06,4.42,4.42,0,0,1-2.81-2.13A1.67,1.67,0,0,1,9,12V10.23a1.75,1.75,0,0,1,1.56-1.7,5,5,0,0,0,2.48-1,1.82,1.82,0,0,1,3,1.43V12a1.6,1.6,0,0,1-.12.65A4.83,4.83,0,0,1,13,14.9,1.76,1.76,0,0,1,12.46,15ZM10,10.26V12a.68.68,0,0,0,.08.32A3.44,3.44,0,0,0,12.28,14a.71.71,0,0,0,.43,0A4,4,0,0,0,15,12.3.65.65,0,0,0,15,12V8.91a.82.82,0,0,0-1.34-.64,6.05,6.05,0,0,1-3,1.25.78.78,0,0,0-.34.12A.76.76,0,0,0,10,10.26Z" style="fill:#7a4f34"/><path d="M20.5,21.5a8.09,8.09,0,0,0-8-5.74c-4,0-8,2.42-9,5.74Z" style="fill:#8bb7f0"/><path d="M21.17,22H2.83L3,21.36c1-3.47,5.12-6.09,9.48-6.09A8.59,8.59,0,0,1,21,21.36Zm-17-1H19.8a7.64,7.64,0,0,0-7.3-4.74C8.91,16.26,5.43,18.3,4.22,21Z" style="fill:#4e7ab5"/></g><g id="Layer_2" data-name="Layer 2"><rect width="24" height="24" style="fill:#7496c4;opacity:0"/></g></svg>