<svg xmlns="http://www.w3.org/2000/svg" viewBox="0 0 24 24"><title>HRM_Expand</title><g id="Layer_1" data-name="Layer 1"><polygon points="5.5 21.5 5.5 9.94 12.14 5.13 18.5 10.25 18.5 21.5 5.5 21.5" style="fill:#dbf2ff"/><path d="M12.12,5.76,18,10.49V21H6V10.2l6.12-4.44m0-1.26L5,9.69V22H19V10L12.15,4.5Z" style="fill:#7496c4"/><rect x="6" y="19" width="12" height="2" style="fill:#b5ddf5"/><rect x="9.5" y="13.5" width="5" height="8" style="fill:#f4caae"/><path d="M14,14v7H10V14h4m1-1H9v9h6V13Z" style="fill:#a16a4a"/><rect x="12" y="17" width="1" height="1" style="fill:#a16a4a"/><polygon points="12 7.09 3.5 12.4 3.5 8.22 12 2.91 20.5 8.22 20.5 12.4 12 7.09" style="fill:#f78f8f"/><path d="M12,3.5l8,5v3l-8-5-8,5v-3l8-5m0-1.18-.53.33-8,5L3,7.95V13.3l1.53-1L12,7.68l7.47,4.67,1.53,1V7.95l-.47-.29-8-5L12,2.32Z" style="fill:#ce5858"/></g><g id="Layer_2" data-name="Layer 2"><rect width="24" height="24" style="fill:#fff;opacity:0"/></g></svg>