<svg xmlns="http://www.w3.org/2000/svg" viewBox="0 0 24 24"><title>HRM_Expand</title><g id="Layer_1" data-name="Layer 1"><circle cx="12" cy="12" r="9.5" style="fill:#ffeea3"/><path d="M12,22A10,10,0,1,1,22,12,10,10,0,0,1,12,22ZM12,3a9,9,0,1,0,9,9A9,9,0,0,0,12,3Z" style="fill:#f5c276"/><path d="M11.5,12.52l6.3,7A9.5,9.5,0,0,1,2.5,12.18a.06.06,0,0,1,.06-.06Z" style="fill:#f4caae"/><path d="M12,22A10.05,10.05,0,0,1,2,12.19V12l.3-.34.25,0,9.18.4,6.8,7.56-.43.33A10.05,10.05,0,0,1,12,22ZM3,12.65a9,9,0,0,0,14,6.8L11.27,13Z" style="fill:#a16a4a"/><path d="M2.5,12a9.54,9.54,0,0,1,9.37-9.5L12,12" style="fill:#f78f8f"/><path d="M12,13H2l0-1A10,10,0,0,1,11.34,2L12,2ZM3,12h8v-9A9,9,0,0,0,3,12Z" style="fill:#ce5858"/></g><g id="Layer_2" data-name="Layer 2"><rect width="24" height="24" style="fill:#fcfcfc;opacity:0"/></g></svg>