<svg id="Layer_1" data-name="Layer 1" xmlns="http://www.w3.org/2000/svg" viewBox="0 0 24 24"><title>HRM_Expand</title><rect width="24" height="24" style="fill:#fff;opacity:0"/><rect x="2.5" y="2.5" width="8" height="8" style="fill:#e1d4f2"/><path d="M10,3v7H3V3h7m1-1H2v9h9V2Z" style="fill:#887a9b"/><path d="M21,3v7H14V3h7m1-1H13v9h9V2Z" style="fill:#7496c4"/><rect x="14" y="3" width="7" height="7" style="fill:#fff"/><rect x="2.5" y="13.5" width="8" height="8" style="fill:#e1d4f2"/><path d="M10,14v7H3V14h7m1-1H2v9h9V13Z" style="fill:#887a9b"/><rect x="13.5" y="13.5" width="8" height="8" style="fill:#c2e8ff"/><path d="M21,14v7H14V14h7m1-1H13v9h9V13Z" style="fill:#7496c4"/><line x1="16.5" y1="13.5" x2="13.5" y2="16.5" style="fill:none;stroke:#7496c4;stroke-miterlimit:10"/><line x1="19.5" y1="13.5" x2="13.5" y2="19.5" style="fill:none;stroke:#7496c4;stroke-miterlimit:10"/><line x1="21.5" y1="14.5" x2="14.5" y2="21.5" style="fill:none;stroke:#7496c4;stroke-miterlimit:10"/><line x1="21.5" y1="17.5" x2="17.5" y2="21.5" style="fill:none;stroke:#7496c4;stroke-miterlimit:10"/><line x1="21.5" y1="20.5" x2="20.5" y2="21.5" style="fill:none;stroke:#7496c4;stroke-miterlimit:10"/><circle cx="4.5" cy="15.5" r="0.5" style="fill:#e1d4f2"/><path d="M4.5,15a.5.5,0,1,0,.5.5.5.5,0,0,0-.5-.5Z" style="fill:#887a9b"/><circle cx="8.5" cy="15.5" r="0.5" style="fill:#e1d4f2"/><path d="M8.5,15a.5.5,0,1,0,.5.5.5.5,0,0,0-.5-.5Z" style="fill:#887a9b"/><circle cx="4.5" cy="19.5" r="0.5" style="fill:#e1d4f2"/><path d="M4.5,19a.5.5,0,1,0,.5.5.5.5,0,0,0-.5-.5Z" style="fill:#887a9b"/><circle cx="8.5" cy="19.5" r="0.5" style="fill:#e1d4f2"/><path d="M8.5,19a.5.5,0,1,0,.5.5.5.5,0,0,0-.5-.5Z" style="fill:#887a9b"/><circle cx="6.5" cy="17.5" r="0.5" style="fill:#e1d4f2"/><path d="M6.5,17a.5.5,0,1,0,.5.5.5.5,0,0,0-.5-.5Z" style="fill:#887a9b"/></svg>