<svg xmlns="http://www.w3.org/2000/svg" viewBox="0 0 24 24"><title>HRM_Expand</title><g id="Layer_1" data-name="Layer 1"><path d="M6.5,7.5h11a0,0,0,0,1,0,0V19.41a1.09,1.09,0,0,1-1.09,1.09H7.59A1.09,1.09,0,0,1,6.5,19.41V7.5A0,0,0,0,1,6.5,7.5Z" style="fill:#e1d4f2"/><path d="M16.41,21H7.59A1.6,1.6,0,0,1,6,19.41V7H18V19.41A1.6,1.6,0,0,1,16.41,21ZM7,8V19.41a.59.59,0,0,0,.59.59h8.81a.59.59,0,0,0,.59-.59V8Z" style="fill:#887a9b"/><path d="M15,5.5H14v-1A.48.48,0,0,0,13.54,4H10.46a.46.46,0,0,0-.46.46v1H9v-1A1.48,1.48,0,0,1,10.46,3h3.08A1.46,1.46,0,0,1,15,4.46Z" style="fill:#887a9b"/><path d="M6.3,5.5H17.7a.8.8,0,0,1,.8.8V7.5a0,0,0,0,1,0,0H5.5a0,0,0,0,1,0,0V6.3A.8.8,0,0,1,6.3,5.5Z" style="fill:#e1d4f2"/><path d="M19,8H5V6.3A1.3,1.3,0,0,1,6.3,5H17.7A1.3,1.3,0,0,1,19,6.3ZM6,7H18V6.3a.3.3,0,0,0-.3-.3H6.3a.3.3,0,0,0-.3.3Z" style="fill:#887a9b"/><path d="M8.5,19.5A.5.5,0,0,1,8,19V9.5a.5.5,0,0,1,1,0V19A.5.5,0,0,1,8.5,19.5Z" style="fill:#887a9b"/><path d="M10.5,19.5A.5.5,0,0,1,10,19V9.5a.5.5,0,0,1,1,0V19A.5.5,0,0,1,10.5,19.5Z" style="fill:#887a9b"/><path d="M13.5,19.5A.5.5,0,0,1,13,19V9.5a.5.5,0,0,1,1,0V19A.5.5,0,0,1,13.5,19.5Z" style="fill:#887a9b"/><path d="M15.5,19.5A.5.5,0,0,1,15,19V9.5a.5.5,0,0,1,1,0V19A.5.5,0,0,1,15.5,19.5Z" style="fill:#887a9b"/></g><g id="Layer_2" data-name="Layer 2"><rect width="24" height="24" style="fill:#fcfcfc;opacity:0"/></g></svg>